# xmcd CD database file
#
# Track frame offsets:
#	150
#	17349
#	31193
#	57295
#	71968
#	92512
#	112532
#	133706
#	154106
#	181581
#	198738
#	215036
#	240316
#	260416
#	283444
#	302020
#
# Disc length: 4334 seconds
#
# Revision: 0
# Processed by: cddbd v1.5.1PL0 Copyright (c) Steve Scherf et al.
# Submitted via: CDex 1.50
#
DISCID=d910ec10
DTITLE=Jimmy Rowles, Clare Fischer - The Pacific Jazz Piano Trios Disc 2
DYEAR=2005
DGENRE=Jazz
TTITLE0=The Day You Came Along
TTITLE1=So Far So Good
TTITLE2=Medley, I Wouldn't Change You , You Are Too Beautiful
TTITLE3=Serenade In Blue
TTITLE4=Let's Fall In Love
TTITLE5=Medley, Remember Me, There Goes My Heart
TTITLE6=Lady Be Good
TTITLE7=Chloe
TTITLE8=Topsy
TTITLE9=Sonny Speaks
TTITLE10=We'll Be Together Again
TTITLE11=Strayhorn
TTITLE12=Things Ain't What They Used To Be
TTITLE13=Davenport Blues
TTITLE14=The Thrill Is Gone
TTITLE15=Without A Song
EXTD=YEAR: 2005
EXTT0=
EXTT1=
EXTT2=
EXTT3=
EXTT4=
EXTT5=
EXTT6=
EXTT7=
EXTT8=
EXTT9=
EXTT10=
EXTT11=
EXTT12=
EXTT13=
EXTT14=
EXTT15=
PLAYORDER=
